<svg xmlns="http://www.w3.org/2000/svg" width="63.742" height="56.66" viewBox="0 0 63.742 56.66">
    <path fill="#3787d4" d="M31.871 0a13.943 13.943 0 0 0-13.943 13.944c0 6.226 9.113 17.573 12.6 21.692a1.745 1.745 0 0 0 2.678 0c3.491-4.119 12.6-15.466 12.6-21.692A13.943 13.943 0 0 0 31.871 0zm0 18.592a4.648 4.648 0 1 1 4.648-4.648 4.647 4.647 0 0 1-4.648 4.648zM2.227 23.9A3.542 3.542 0 0 0 0 27.186v27.7a1.771 1.771 0 0 0 2.428 1.644l15.278-6.954V23.784a33.513 33.513 0 0 1-2.352-5.137zm29.644 15.9a5.288 5.288 0 0 1-4.04-1.877c-2.176-2.567-4.49-5.491-6.583-8.49v20.143l21.247 7.082V29.437c-2.094 3-4.407 5.923-6.583 8.49a5.29 5.29 0 0 1-4.041 1.873zm29.443-21.965l-15.278 6.954V56.66l15.48-6.192a3.541 3.541 0 0 0 2.227-3.288v-27.7a1.771 1.771 0 0 0-2.428-1.644z"/>
</svg>
